<svg width="48" height="46" viewBox="0 0 48 46" fill="none" xmlns="http://www.w3.org/2000/svg">
<path d="M42.7812 5.9375H41.7076C41.8735 5.76837 41.9762 5.53691 41.9762 5.28125V4.0625C41.9762 2.30488 40.5463 0.875 38.7887 0.875C37.0311 0.875 35.6012 2.30488 35.6012 4.0625V5.9375H26.907C27.0729 5.76837 27.1756 5.53691 27.1756 5.28125V4.0625C27.1756 2.30488 25.7457 0.875 23.9881 0.875C22.2305 0.875 20.8006 2.30488 20.8006 4.0625V5.9375H12.1064C12.2723 5.76837 12.375 5.53691 12.375 5.28125V4.0625C12.375 2.30488 10.9451 0.875 9.1875 0.875C7.42987 0.875 6 2.30488 6 4.0625V5.9375H5.21878C2.34113 5.9375 0 8.27863 0 11.1563V42.3125C0 43.8633 1.26169 45.125 2.8125 45.125H19C19.5177 45.125 19.9375 44.7053 19.9375 44.1875C19.9375 43.6697 19.5177 43.25 19 43.25H2.8125C2.29556 43.25 1.875 42.8294 1.875 42.3125V18.3125H38.3756C38.8933 18.3125 39.3131 17.8928 39.3131 17.375C39.3131 16.8572 38.8933 16.4375 38.3756 16.4375H1.875V11.1563C1.875 9.3125 3.375 7.8125 5.21878 7.8125H6V10.0782C6 11.8359 7.42987 13.2657 9.1875 13.2657C10.9451 13.2657 12.375 11.8359 12.375 10.0782C12.375 9.56047 11.9552 9.14075 11.4375 9.14075C10.9198 9.14075 10.5 9.56047 10.5 10.0782C10.5 10.802 9.91125 11.3907 9.1875 11.3907C8.46375 11.3907 7.875 10.802 7.875 10.0782V7.8125H20.8006V10.0782C20.8006 11.8359 22.2305 13.2657 23.9881 13.2657C25.7457 13.2657 27.1756 11.8359 27.1756 10.0782C27.1756 9.56047 26.7558 9.14075 26.2381 9.14075C25.7204 9.14075 25.3006 9.56047 25.3006 10.0782C25.3006 10.802 24.7118 11.3907 23.9881 11.3907C23.2643 11.3907 22.6756 10.802 22.6756 10.0782V7.8125H35.6012V10.0782C35.6012 11.8359 37.0311 13.2657 38.7887 13.2657C40.5463 13.2657 41.9762 11.8359 41.9762 10.0782C41.9762 9.56047 41.5564 9.14075 41.0387 9.14075C40.521 9.14075 40.1012 9.56047 40.1012 10.0782C40.1012 10.802 39.5124 11.3907 38.7887 11.3907C38.0649 11.3907 37.4762 10.802 37.4762 10.0782V7.8125H42.7812C44.625 7.8125 46.125 9.3125 46.125 11.1563V42.3125C46.125 42.8294 45.7044 43.25 45.1875 43.25H29C28.4823 43.25 28.0625 43.6697 28.0625 44.1875C28.0625 44.7053 28.4823 45.125 29 45.125H45.1875C46.7383 45.125 48 43.8633 48 42.3125V11.1563C48 8.27863 45.6589 5.9375 42.7812 5.9375ZM7.875 5.9375V4.0625C7.875 3.33875 8.46375 2.75 9.1875 2.75C9.91125 2.75 10.5 3.33875 10.5 4.0625V5.28125C10.5 5.53691 10.6027 5.76837 10.7686 5.9375H7.875ZM22.6756 5.9375V4.0625C22.6756 3.33875 23.2643 2.75 23.9881 2.75C24.7118 2.75 25.3006 3.33875 25.3006 4.0625V5.28125C25.3006 5.53691 25.4032 5.76837 25.5692 5.9375H22.6756ZM37.4762 5.9375V4.0625C37.4762 3.33875 38.0649 2.75 38.7887 2.75C39.5124 2.75 40.1012 3.33875 40.1012 4.0625V5.28125C40.1012 5.53691 40.2038 5.76837 40.3698 5.9375H37.4762Z" fill="#FF3F3A"/>
</svg>
